# xmcd
#
# Track frame offsets:
#	150
#	21440
#	43940
#	66505
#	84662
#	101102
#	119045
#	136592
#	156412
#	174570
#	196185
#	215550
#
# Disc length: 3242 seconds
#
# Revision: 3
# Processed by: cddbd v1.5.2PL0 Copyright (c) Steve Scherf et al.
# Submitted via: EasyCDDAExtractor 15.3.0.1
#
DISCID=b60ca80c
DTITLE=Mijares - Historias De Un Amor...
DYEAR=2000
DGENRE=Latin
TTITLE0=Aunque No Estes
TTITLE1=Si Me Enamoro
TTITLE2=Historia De Un Amor
TTITLE3=Por Culpa De Quien
TTITLE4=La Belleza
TTITLE5=Amigas, Amores
TTITLE6=Dame Una Flor
TTITLE7=Perdoname
TTITLE8=Dile Que La Amas
TTITLE9=Hablame De Ti
TTITLE10=Cuando Te Hablo De Amor
TTITLE11=Cuando Me Vaya
EXTD=
EXTT0=
EXTT1=
EXTT2=
EXTT3=
EXTT4=
EXTT5=
EXTT6=
EXTT7=
EXTT8=
EXTT9=
EXTT10=
EXTT11=
PLAYORDER=
